name E:\3-PhD\Data\MocapData\ElaboratedData\009\pre\dynamicElaborations\Run_baseline1\Run_baseline1.mot																																				
datacolumns 37																																				
datarows 58																																				
range 0.1235 0.152																																				
endheader																																				
																																				
time	    ground_force1_vx	    ground_force1_vy	    ground_force1_vz	    ground_force1_px	    ground_force1_py	    ground_force1_pz	    ground_force2_vx	    ground_force2_vy	    ground_force2_vz	    ground_force2_px	    ground_force2_py	    ground_force2_pz	    ground_force3_vx	    ground_force3_vy	    ground_force3_vz	    ground_force3_px	    ground_force3_py	    ground_force3_pz	    ground_force4_vx	    ground_force4_vy	    ground_force4_vz	    ground_force4_px	    ground_force4_py	    ground_force4_pz	    ground_torque1_x	    ground_torque1_y	    ground_torque1_z	    ground_torque2_x	    ground_torque2_y	    ground_torque2_z	    ground_torque3_x	    ground_torque3_y	    ground_torque3_z	    ground_torque4_x	    ground_torque4_y	    ground_torque4_z
0.1235	60.18224819	1269.43985	77.19212222	-2.10864082	0	0.19151124	0	0	0	0	0	0	0	0	0	0	0	0	0	0	0	0	0	0	0	5.52240777	0	0	0	0	0	0	0	0	0	0
0.124	62.52715269	1287.68211	77.27206203	-2.10853955	0	0.19166728	0	0	0	0	0	0	0	0	0	0	0	0	0	0	0	0	0	0	0	5.45085248	0	0	0	0	0	0	0	0	0	0
0.1245	64.89722052	1305.791896	77.32321393	-2.10843649	0	0.19182172	0	0	0	0	0	0	0	0	0	0	0	0	0	0	0	0	0	0	0	5.37513291	0	0	0	0	0	0	0	0	0	0
0.125	67.29446685	1323.76099	77.34533206	-2.10833167	0	0.19197457	0	0	0	0	0	0	0	0	0	0	0	0	0	0	0	0	0	0	0	5.29531992	0	0	0	0	0	0	0	0	0	0
0.1255	69.72085869	1341.581385	77.33825804	-2.10822511	0	0.19212585	0	0	0	0	0	0	0	0	0	0	0	0	0	0	0	0	0	0	0	5.21149141	0	0	0	0	0	0	0	0	0	0
0.126	72.17828981	1359.245296	77.30192215	-2.10811682	0	0.19227557	0	0	0	0	0	0	0	0	0	0	0	0	0	0	0	0	0	0	0	5.12373247	0	0	0	0	0	0	0	0	0	0
0.1265	74.66855731	1376.745179	77.23634644	-2.10800682	0	0.19242375	0	0	0	0	0	0	0	0	0	0	0	0	0	0	0	0	0	0	0	5.03213526	0	0	0	0	0	0	0	0	0	0
0.127	77.19334305	1394.073743	77.14164813	-2.10789513	0	0.1925704	0	0	0	0	0	0	0	0	0	0	0	0	0	0	0	0	0	0	0	4.93679913	0	0	0	0	0	0	0	0	0	0
0.1275	79.75420256	1411.223952	77.01804044	-2.10778176	0	0.19271551	0	0	0	0	0	0	0	0	0	0	0	0	0	0	0	0	0	0	0	4.837831	0	0	0	0	0	0	0	0	0	0
0.128	82.35255943	1428.189043	76.86583048	-2.10766673	0	0.19285911	0	0	0	0	0	0	0	0	0	0	0	0	0	0	0	0	0	0	0	4.73534552	0	0	0	0	0	0	0	0	0	0
0.1285	84.98970064	1444.962527	76.6854161	-2.10755005	0	0.19300119	0	0	0	0	0	0	0	0	0	0	0	0	0	0	0	0	0	0	0	4.62946468	0	0	0	0	0	0	0	0	0	0
0.129	87.66677111	1461.538199	76.47728396	-2.10743173	0	0.19314176	0	0	0	0	0	0	0	0	0	0	0	0	0	0	0	0	0	0	0	4.52031708	0	0	0	0	0	0	0	0	0	0
0.1295	90.38477091	1477.910135	76.24200786	-2.10731181	0	0.19328081	0	0	0	0	0	0	0	0	0	0	0	0	0	0	0	0	0	0	0	4.40803765	0	0	0	0	0	0	0	0	0	0
0.13	93.14455847	1494.072697	75.98024544	-2.10719028	0	0.19341836	0	0	0	0	0	0	0	0	0	0	0	0	0	0	0	0	0	0	0	4.29276781	0	0	0	0	0	0	0	0	0	0
0.1305	95.94685791	1510.020527	75.69273259	-2.10706716	0	0.19355439	0	0	0	0	0	0	0	0	0	0	0	0	0	0	0	0	0	0	0	4.17465555	0	0	0	0	0	0	0	0	0	0
0.131	98.79226505	1525.748543	75.38027716	-2.10694248	0	0.19368891	0	0	0	0	0	0	0	0	0	0	0	0	0	0	0	0	0	0	0	4.05385491	0	0	0	0	0	0	0	0	0	0
0.1315	101.6812509	1541.251936	75.04375379	-2.10681625	0	0.19382192	0	0	0	0	0	0	0	0	0	0	0	0	0	0	0	0	0	0	0	3.93052504	0	0	0	0	0	0	0	0	0	0
0.132	104.6141668	1556.526156	74.68409983	-2.10668848	0	0.19395341	0	0	0	0	0	0	0	0	0	0	0	0	0	0	0	0	0	0	0	3.80482993	0	0	0	0	0	0	0	0	0	0
0.1325	107.5912537	1571.566911	74.30231063	-2.1065592	0	0.19408337	0	0	0	0	0	0	0	0	0	0	0	0	0	0	0	0	0	0	0	3.67693863	0	0	0	0	0	0	0	0	0	0
0.133	110.6126535	1586.370152	73.89943376	-2.10642842	0	0.19421182	0	0	0	0	0	0	0	0	0	0	0	0	0	0	0	0	0	0	0	3.54702516	0	0	0	0	0	0	0	0	0	0
0.1335	113.678418	1600.932061	73.47656238	-2.10629616	0	0.19433873	0	0	0	0	0	0	0	0	0	0	0	0	0	0	0	0	0	0	0	3.41526764	0	0	0	0	0	0	0	0	0	0
0.134	116.7885158	1615.249042	73.03482935	-2.10616245	0	0.1944641	0	0	0	0	0	0	0	0	0	0	0	0	0	0	0	0	0	0	0	3.2818473	0	0	0	0	0	0	0	0	0	0
0.1345	119.9428412	1629.31771	72.57540253	-2.10602729	0	0.19458793	0	0	0	0	0	0	0	0	0	0	0	0	0	0	0	0	0	0	0	3.1469481	0	0	0	0	0	0	0	0	0	0
0.135	123.1412242	1643.134881	72.09948054	-2.10589072	0	0.19471021	0	0	0	0	0	0	0	0	0	0	0	0	0	0	0	0	0	0	0	3.01075687	0	0	0	0	0	0	0	0	0	0
0.1355	126.3834419	1656.697561	71.60828758	-2.10575276	0	0.19483093	0	0	0	0	0	0	0	0	0	0	0	0	0	0	0	0	0	0	0	2.87346309	0	0	0	0	0	0	0	0	0	0
0.136	129.6692268	1670.002937	71.10306715	-2.10561344	0	0.19495008	0	0	0	0	0	0	0	0	0	0	0	0	0	0	0	0	0	0	0	2.7352579	0	0	0	0	0	0	0	0	0	0
0.1365	132.9982732	1683.04837	70.58507586	-2.10547276	0	0.19506766	0	0	0	0	0	0	0	0	0	0	0	0	0	0	0	0	0	0	0	2.59633317	0	0	0	0	0	0	0	0	0	0
0.137	136.3702454	1695.83138	70.0555785	-2.10533078	0	0.19518366	0	0	0	0	0	0	0	0	0	0	0	0	0	0	0	0	0	0	0	2.45688113	0	0	0	0	0	0	0	0	0	0
0.1375	139.7847856	1708.349642	69.5158435	-2.1051875	0	0.19529807	0	0	0	0	0	0	0	0	0	0	0	0	0	0	0	0	0	0	0	2.31709451	0	0	0	0	0	0	0	0	0	0
0.138	143.2415219	1720.600973	68.96713796	-2.10504296	0	0.19541088	0	0	0	0	0	0	0	0	0	0	0	0	0	0	0	0	0	0	0	2.1771663	0	0	0	0	0	0	0	0	0	0
0.1385	146.7400733	1732.583325	68.41072167	-2.10489719	0	0.19552209	0	0	0	0	0	0	0	0	0	0	0	0	0	0	0	0	0	0	0	2.03728901	0	0	0	0	0	0	0	0	0	0
0.139	150.2800533	1744.294784	67.8478409	-2.10475021	0	0.1956317	0	0	0	0	0	0	0	0	0	0	0	0	0	0	0	0	0	0	0	1.89765381	0	0	0	0	0	0	0	0	0	0
0.1395	153.8610724	1755.733552	67.27972309	-2.10460206	0	0.19573969	0	0	0	0	0	0	0	0	0	0	0	0	0	0	0	0	0	0	0	1.75845033	0	0	0	0	0	0	0	0	0	0
0.14	157.4827425	1766.897947	66.70757257	-2.10445277	0	0.19584607	0	0	0	0	0	0	0	0	0	0	0	0	0	0	0	0	0	0	0	1.61986684	0	0	0	0	0	0	0	0	0	0
0.1405	161.1446784	1777.786397	66.13256596	-2.10430237	0	0.19595083	0	0	0	0	0	0	0	0	0	0	0	0	0	0	0	0	0	0	0	1.48209011	0	0	0	0	0	0	0	0	0	0
0.141	164.8464979	1788.397432	65.55584634	-2.10415088	0	0.19605396	0	0	0	0	0	0	0	0	0	0	0	0	0	0	0	0	0	0	0	1.34530451	0	0	0	0	0	0	0	0	0	0
0.1415	168.5878185	1798.729677	64.97851723	-2.10399835	0	0.19615547	0	0	0	0	0	0	0	0	0	0	0	0	0	0	0	0	0	0	0	1.20969104	0	0	0	0	0	0	0	0	0	0
0.142	172.3682548	1808.781851	64.40163782	-2.10384479	0	0.19625535	0	0	0	0	0	0	0	0	0	0	0	0	0	0	0	0	0	0	0	1.07542682	0	0	0	0	0	0	0	0	0	0
0.1425	176.1874172	1818.552764	63.82621949	-2.10369025	0	0.1963536	0	0	0	0	0	0	0	0	0	0	0	0	0	0	0	0	0	0	0	0.94268518	0	0	0	0	0	0	0	0	0	0
0.143	180.0449082	1828.04131	63.25322304	-2.10353476	0	0.19645022	0	0	0	0	0	0	0	0	0	0	0	0	0	0	0	0	0	0	0	0.81163555	0	0	0	0	0	0	0	0	0	0
0.1435	183.9403172	1837.246471	62.68355595	-2.10337835	0	0.19654522	0	0	0	0	0	0	0	0	0	0	0	0	0	0	0	0	0	0	0	0.68244286	0	0	0	0	0	0	0	0	0	0
0.144	187.8732136	1846.167312	62.11806982	-2.10322104	0	0.19663859	0	0	0	0	0	0	0	0	0	0	0	0	0	0	0	0	0	0	0	0.55526681	0	0	0	0	0	0	0	0	0	0
0.1445	191.84314	1854.802983	61.55755877	-2.10306288	0	0.19673034	0	0	0	0	0	0	0	0	0	0	0	0	0	0	0	0	0	0	0	0.4302615	0	0	0	0	0	0	0	0	0	0
0.145	195.849608	1863.152717	61.00275886	-2.10290389	0	0.19682048	0	0	0	0	0	0	0	0	0	0	0	0	0	0	0	0	0	0	0	0.30757543	0	0	0	0	0	0	0	0	0	0
0.1455	199.8920924	1871.215828	60.4543485	-2.1027441	0	0.19690901	0	0	0	0	0	0	0	0	0	0	0	0	0	0	0	0	0	0	0	0.18735137	0	0	0	0	0	0	0	0	0	0
0.146	203.9700239	1878.991711	59.91294902	-2.10258355	0	0.19699593	0	0	0	0	0	0	0	0	0	0	0	0	0	0	0	0	0	0	0	0.0697257	0	0	0	0	0	0	0	0	0	0
0.1465	208.0827817	1886.479843	59.37912586	-2.10242226	0	0.19708125	0	0	0	0	0	0	0	0	0	0	0	0	0	0	0	0	0	0	0	-0.04517218	0	0	0	0	0	0	0	0	0	0
0.147	212.2296866	1893.679782	58.85339058	-2.10226027	0	0.19716499	0	0	0	0	0	0	0	0	0	0	0	0	0	0	0	0	0	0	0	-0.15721984	0	0	0	0	0	0	0	0	0	0
0.1475	216.4099971	1900.591165	58.33620374	-2.10209761	0	0.19724715	0	0	0	0	0	0	0	0	0	0	0	0	0	0	0	0	0	0	0	-0.26630148	0	0	0	0	0	0	0	0	0	0
0.148	220.6229046	1907.213708	57.82797795	-2.10193429	0	0.19732775	0	0	0	0	0	0	0	0	0	0	0	0	0	0	0	0	0	0	0	-0.37230796	0	0	0	0	0	0	0	0	0	0
0.1485	224.8675274	1913.547201	57.32907992	-2.10177036	0	0.19740678	0	0	0	0	0	0	0	0	0	0	0	0	0	0	0	0	0	0	0	-0.47513737	0	0	0	0	0	0	0	0	0	0
0.149	229.1429071	1919.591511	56.83983207	-2.10160583	0	0.19748428	0	0	0	0	0	0	0	0	0	0	0	0	0	0	0	0	0	0	0	-0.57469562	0	0	0	0	0	0	0	0	0	0
0.1495	233.4480059	1925.346579	56.36051399	-2.10144073	0	0.19756024	0	0	0	0	0	0	0	0	0	0	0	0	0	0	0	0	0	0	0	-0.67089629	0	0	0	0	0	0	0	0	0	0
0.15	237.7817078	1930.812416	55.8913644	-2.10127509	0	0.19763469	0	0	0	0	0	0	0	0	0	0	0	0	0	0	0	0	0	0	0	-0.76366019	0	0	0	0	0	0	0	0	0	0
0.1505	242.1428186	1935.989097	55.43258301	-2.10110894	0	0.19770763	0	0	0	0	0	0	0	0	0	0	0	0	0	0	0	0	0	0	0	-0.85291501	0	0	0	0	0	0	0	0	0	0
0.151	246.5300663	1940.876764	54.98433174	-2.10094228	0	0.19777909	0	0	0	0	0	0	0	0	0	0	0	0	0	0	0	0	0	0	0	-0.93859543	0	0	0	0	0	0	0	0	0	0
0.1515	250.9421028	1945.475615	54.54673517	-2.10077515	0	0.19784907	0	0	0	0	0	0	0	0	0	0	0	0	0	0	0	0	0	0	0	-1.02064335	0	0	0	0	0	0	0	0	0	0
0.152	255.3775079	1949.785899	54.11988066	-2.10060756	0	0.19791761	0	0	0	0	0	0	0	0	0	0	0	0	0	0	0	0	0	0	0	-1.09900773	0	0	0	0	0	0	0	0	0	0
